<svg width="512" height="512" viewBox="0 0 512 512" fill="none" xmlns="http://www.w3.org/2000/svg">

<defs>
  <linearGradient id="g1" x1="0" y1="0" x2="1" y2="1">
    <stop offset="0%" stop-color="#0C4E8C"/>
    <stop offset="100%" stop-color="#0C81E4"/>
  </linearGradient>

  <linearGradient id="g2" x1="0" y1="0" x2="1" y2="1">
    <stop offset="0%" stop-color="#0C81E4"/>
    <stop offset="100%" stop-color="#11C4D4"/>
  </linearGradient>

  <linearGradient id="g3" x1="0" y1="0" x2="1" y2="1">
    <stop offset="0%" stop-color="#11C4D4"/>
    <stop offset="100%" stop-color="#4FE7AF"/>
  </linearGradient>

  <path id="petal"
    d="M256 120
       C275 140 285 165 285 190
       C285 225 260 250 225 250
       L190 250
       C215 235 232 210 232 185
       C232 165 224 145 210 128
       Z"/>
</defs>

<g transform="translate(0,0)">
  <use href="#petal" fill="url(#g1)"/>
</g>

<g transform="rotate(60 256 256)">
  <use href="#petal" fill="url(#g1)"/>
</g>

<g transform="rotate(120 256 256)">
  <use href="#petal" fill="url(#g2)"/>
</g>

<g transform="rotate(180 256 256)">
  <use href="#petal" fill="url(#g2)"/>
</g>

<g transform="rotate(240 256 256)">
  <use href="#petal" fill="url(#g3)"/>
</g>

<g transform="rotate(300 256 256)">
  <use href="#petal" fill="url(#g3)"/>
</g>

<circle cx="256" cy="256" r="70" fill="white"/>

<path d="M225 255
         L248 278
         L295 231"
      stroke="#0C4E8C"
      stroke-width="20"
      stroke-linecap="round"
      stroke-linejoin="round"/>

</svg>